<svg xmlns="http://www.w3.org/2000/svg" viewBox="0 0 48 48" role="img" aria-label="d/dx">
  <rect width="48" height="48" rx="11" fill="#A855F7"/>
  <g fill="#FFFFFF" transform="translate(4, 15)">
    <!-- d -->
    <path d="M2 9.5c0-3.6 2.4-6 5.5-6 2.2 0 3.8 1.1 4.5 2.8V0h3v18h-3v-2c-.8 1.5-2.4 2.5-4.5 2.5-3.1 0-5.5-2.4-5.5-6v-5zm3 5v-5c0-2.2 1.3-3.5 3.2-3.5 1.4 0 2.5.7 3 1.7v7.6c-.5 1-1.6 1.7-3 1.7-1.9 0-3.2-1.3-3.2-3.5z"/>
    <!-- / -->
    <path d="M15.5 18 18.5 9h2.8L18.3 18z"/>
    <!-- d -->
    <path d="M21.5 9.5c0-3.6 2.4-6 5.5-6 2.2 0 3.8 1.1 4.5 2.8V0h3v18h-3v-2c-.8 1.5-2.4 2.5-4.5 2.5-3.1 0-5.5-2.4-5.5-6v-5zm3 5v-5c0-2.2 1.3-3.5 3.2-3.5 1.4 0 2.5.7 3 1.7v7.6c-.5 1-1.6 1.7-3 1.7-1.9 0-3.2-1.3-3.2-3.5z"/>
    <!-- x -->
    <path d="M35.2 9 32.5 12.7 29.8 9H27l3.5 4.5L27 18h2.8l2.7-3.7 2.7 3.7H38l-3.5-4.5z"/>
  </g>
</svg>
